Coordinates
version=1
nRows=32
nColumns=12
inDegrees=yes

Units are S.I. units (second, meters, Newtons, ...)
Angles are in degrees

endheader
time	SC_y	SC_z	SC_x	AC_y	AC_z	AC_x	GH_y	GH_z	GH_yy	EL_x	PS_y
       0.0              -19.65          1.848          7.617          34.01         -17.61         -1.871         -114.5          74.99          176.2          131.2          121.6
  0.001674              -19.65          1.853          7.618          34.02          -17.6         -1.872         -114.4          74.99          176.2          131.1          121.5
  0.003348              -19.65          1.859          7.618          34.02          -17.6         -1.874         -114.4          74.98          176.1          131.1          121.5
  0.005021              -19.66          1.864          7.619          34.02          -17.6         -1.876         -114.4          74.98          176.1          131.1          121.5
  0.006695              -19.66           1.87           7.62          34.02         -17.59         -1.878         -114.3          74.98          176.1          131.1          121.5
  0.008369              -19.66          1.877          7.621          34.03         -17.59         -1.881         -114.3          74.98          176.0          131.1          121.5
   0.01004              -19.67          1.884          7.622          34.03         -17.58         -1.883         -114.2          74.97          176.0          131.0          121.4
   0.01172              -19.67          1.891          7.623          34.03         -17.57         -1.885         -114.2          74.97          175.9          131.0          121.4
   0.01339              -19.67          1.899          7.624          34.04         -17.57         -1.888         -114.1          74.97          175.9          131.0          121.4
   0.01506              -19.68          1.908          7.625          34.04         -17.56         -1.891         -114.1          74.96          175.8          130.9          121.4
   0.01674              -19.68          1.917          7.626          34.05         -17.55         -1.894         -114.0          74.96          175.7          130.9          121.3
   0.01841              -19.69          1.927          7.627          34.05         -17.55         -1.898         -113.9          74.96          175.7          130.9          121.3
   0.02009              -19.69          1.937          7.628          34.06         -17.54         -1.902         -113.9          74.95          175.6          130.8          121.3
   0.02176               -19.7          1.949           7.63          34.06         -17.53         -1.905         -113.8          74.95          175.5          130.8          121.3
   0.02343              -19.71          1.961          7.631          34.07         -17.52          -1.91         -113.7          74.94          175.4          130.7          121.2
   0.02511              -19.71          1.975          7.633          34.07         -17.51         -1.914         -113.6          74.94          175.3          130.7          121.2
   0.02678              -19.72          1.989          7.635          34.08          -17.5          -1.92         -113.5          74.93          175.2          130.6          121.1
   0.02845              -19.73          2.005          7.637          34.09         -17.48         -1.925         -113.4          74.92          175.1          130.6          121.1
   0.03013              -19.74          2.022          7.639           34.1         -17.47         -1.931         -113.3          74.92          175.0          130.5          121.0
    0.0318              -19.75          2.041          7.641          34.11         -17.46         -1.938         -113.1          74.91          174.9          130.5          121.0
   0.03348              -19.76          2.062          7.644          34.12         -17.44         -1.945         -113.0           74.9          174.7          130.4          120.9
   0.03515              -19.77          2.085          7.647          34.13         -17.42         -1.953         -112.8          74.89          174.5          130.3          120.8
   0.03682              -19.78          2.111           7.65          34.14          -17.4         -1.962         -112.6          74.88          174.4          130.2          120.8
    0.0385               -19.8          2.139          7.654          34.15         -17.38         -1.972         -112.5          74.87          174.2          130.1          120.7
   0.04017              -19.82           2.17          7.658          34.17         -17.35         -1.983         -112.2          74.86          173.9          130.0          120.6
   0.04184              -19.83          2.205          7.662          34.19         -17.33         -1.995         -112.0          74.85          173.7          129.9          120.5
   0.04352              -19.85          2.244          7.667           34.2         -17.29         -2.008         -111.7          74.83          173.4          129.7          120.3
   0.04519              -19.88          2.288          7.672          34.23         -17.26         -2.024         -111.4          74.81          173.1          129.6          120.2
   0.04687               -19.9          2.338          7.679          34.25         -17.22         -2.041         -111.1          74.79          172.8          129.4          120.1
   0.04854              -19.93          2.394          7.686          34.28         -17.18         -2.061         -110.7          74.77          172.4          129.2          119.9
   0.05021              -19.97          2.459          7.694          34.31         -17.12         -2.083         -110.2          74.74          171.9          128.9          119.7
   0.05189               -20.0          2.533          7.703          34.34         -17.07         -2.109         -109.7          74.72          171.4          128.7          119.5
